# xmcd
#
# Track frame offsets:
#	150
#	17775
#	32050
#	59475
#	99250
#	115463
#	129125
#	146688
#	162925
#	190400
#	210012
#	223312
#
# Disc length: 3215 seconds
#
# Revision: 1
# Processed by: cddbd v1.5.2PL0 Copyright (c) Steve Scherf et al.
# Submitted via: EasyCDDAExtractor 8.2.3.1
#
DISCID=a90c8d0c
DTITLE=PETER GREEN - White Sky
DYEAR=1982
DGENRE=Blues
TTITLE0=Time Me To Go
TTITLE1=Shining Star
TTITLE2=The Clown
TTITLE3=White Sky (Love That Evil Woman)
TTITLE4=It's Gonna Be Me
TTITLE5=Born On The Wild Side
TTITLE6=Fallin' Apart
TTITLE7=Indian Lover
TTITLE8=Just Another Guy
TTITLE9=Rubbing My Eyes (bonus track)
TTITLE10=Bandit (bonus track)
TTITLE11=Black Woman  (bonus track)
EXTD=
EXTT0=
EXTT1=
EXTT2=
EXTT3=
EXTT4=
EXTT5=
EXTT6=
EXTT7=
EXTT8=
EXTT9=
EXTT10=
EXTT11=
PLAYORDER=
